<?xml version="1.0" encoding="UTF-8" standalone="no"?>
<!DOCTYPE svg PUBLIC "-//W3C//DTD SVG 1.1//EN" "http://www.w3.org/Graphics/SVG/1.1/DTD/svg11.dtd">
<svg width="100%" height="100%" viewBox="0 0 1884 326" version="1.1" xmlns="http://www.w3.org/2000/svg" xmlns:xlink="http://www.w3.org/1999/xlink" xml:space="preserve" style="fill-rule:evenodd;clip-rule:evenodd;stroke-linejoin:round;stroke-miterlimit:1.41421;">
    <g id="Artboard1" transform="matrix(0.941444,0,0,0.717309,-205.271,-868.21)">
        <rect x="218.039" y="1210.37" width="2000.66" height="454.187" style="fill:none;"/>
        <g transform="matrix(1.0622,0,0,1.3941,-17.9095,-702.93)">
            <path d="M494.034,1468.04L494.034,1478.28C483.479,1471.84 471.165,1468.04 457.972,1468.04C418.694,1468.04 386.784,1500.82 386.784,1541.28C386.784,1582.02 418.694,1614.81 457.972,1614.81C471.165,1614.81 483.479,1611 494.034,1604.56L494.034,1619.8C494.034,1628.9 479.961,1637.12 458.558,1637.12C444.192,1637.12 432.757,1630.07 430.705,1623.03L394.103,1623.03C395.274,1650.29 425.721,1673.71 458.558,1673.42C507.792,1673.42 530.04,1647.65 530.04,1616.86L530.04,1468.04L494.034,1468.04ZM457.972,1579.68C439.794,1579.68 425.134,1562.68 425.134,1541.28C425.134,1520.17 439.794,1503.16 457.972,1503.16C475.856,1503.16 490.515,1520.17 490.515,1541.28C490.515,1562.68 475.856,1579.68 457.972,1579.68Z" style="fill:rgb(242,99,99);fill-rule:nonzero;"/>
            <path d="M605.349,1468.04L604.763,1468.04C592.749,1468.04 581.321,1471.55 573.995,1476.53L573.995,1468.04L537.695,1468.04L537.695,1614.81L573.995,1614.81L573.995,1532.47C574.288,1515.76 576.925,1502.58 602.126,1502.58C609.745,1502.29 624.982,1506.68 631.136,1510.78L631.136,1471.26C624.982,1470.09 612.382,1468.04 605.349,1468.04Z" style="fill:rgb(242,99,99);fill-rule:nonzero;"/>
            <path d="M693.277,1470.09L692.691,1470.09C652.849,1470.09 622.675,1502.87 622.675,1542.74C622.675,1583.49 652.849,1616.27 692.691,1616.27L693.277,1616.27C714.077,1616.27 732.533,1607.2 745.13,1592.86L746.595,1591.1C746.888,1590.81 746.888,1590.81 747.181,1590.52L749.525,1587C753.919,1581.44 758.02,1574.69 759.778,1569.12L717.592,1568.53C717.007,1569.7 716.421,1570.88 715.542,1571.76C709.976,1577.92 702.359,1581.73 692.984,1581.73C677.457,1581.73 666.032,1571.17 662.224,1555.62L762.122,1555.62C763.001,1551.23 763.293,1548.3 763.293,1543.62C763.293,1502.87 733.119,1470.09 693.277,1470.09ZM692.984,1504.63C707.046,1504.63 717.592,1513.14 722.573,1526.35L663.689,1526.35C668.376,1513.14 678.922,1504.63 692.984,1504.63Z" style="fill:rgb(242,99,99);fill-rule:nonzero;"/>
            <path d="M898.967,1565.02L898.382,1468.33L865.012,1468.33L865.012,1477.4C855.63,1471.55 844.489,1468.33 831.588,1468.33C792.896,1468.33 761.572,1496.14 761.572,1543.91C761.572,1585.83 794.652,1614.52 831.588,1614.52C848.007,1614.52 861.787,1609.25 872.33,1600.17C884.917,1614.81 909.516,1614.81 917.135,1614.81L917.135,1579.98C901.019,1580.27 898.967,1577.63 898.967,1565.02ZM831.881,1579.98C814.876,1579.98 799.336,1567.95 799.336,1543.91C799.336,1518.12 813.703,1502.87 831.881,1502.87C851.526,1502.87 865.012,1519.29 865.012,1541.57C865.012,1563.85 851.526,1579.98 831.881,1579.98Z" style="fill:rgb(242,99,99);fill-rule:nonzero;"/>
            <path d="M990.393,1496.42L990.393,1468.92L961.383,1468.92L961.383,1427.31L925.084,1436.1L925.084,1468.92L904.572,1468.92L904.279,1496.42L925.084,1496.42L925.084,1578.22C925.084,1615.39 980.137,1615.39 990.393,1615.39L990.393,1582.61C974.277,1582.9 961.383,1577.63 961.383,1567.08L961.383,1496.42L990.393,1496.42Z" style="fill:rgb(242,99,99);fill-rule:nonzero;"/>
            <path d="M1057.81,1470.09L1057.22,1470.09C1017.38,1470.09 987.207,1502.87 987.207,1542.74C987.207,1583.49 1017.38,1616.27 1057.22,1616.27L1057.81,1616.27C1078.61,1616.27 1097.07,1607.2 1109.66,1592.86L1111.13,1591.1C1111.42,1590.81 1111.42,1590.81 1111.71,1590.52L1114.06,1587C1118.45,1581.44 1122.55,1574.69 1124.31,1569.12L1082.12,1568.53C1081.54,1569.7 1080.95,1570.88 1080.07,1571.76C1074.51,1577.92 1066.89,1581.73 1057.52,1581.73C1041.99,1581.73 1030.56,1571.17 1026.76,1555.62L1126.65,1555.62C1127.53,1551.23 1127.83,1548.3 1127.83,1543.62C1127.83,1502.87 1097.65,1470.09 1057.81,1470.09ZM1057.52,1504.63C1071.58,1504.63 1082.12,1513.14 1087.11,1526.35L1028.22,1526.35C1032.91,1513.14 1043.45,1504.63 1057.52,1504.63Z" style="fill:rgb(242,99,99);fill-rule:nonzero;"/>
            <path d="M1196.69,1468.04L1196.1,1468.04C1184.09,1468.04 1172.66,1471.55 1165.33,1476.53L1165.33,1468.04L1129.03,1468.04L1129.03,1614.81L1165.33,1614.81L1165.33,1532.47C1165.63,1515.76 1168.26,1502.58 1193.46,1502.58C1201.08,1502.29 1216.32,1506.68 1222.48,1510.78L1222.48,1471.26C1216.32,1470.09 1203.72,1468.04 1196.69,1468.04Z" style="fill:rgb(242,99,99);fill-rule:nonzero;"/>
            <path d="M1445.2,1468.04L1444.62,1468.04C1433.47,1468.04 1409.43,1475.36 1401.53,1492.63C1390.11,1475.36 1371.96,1468.04 1352.6,1468.04L1352.02,1468.04C1339.41,1468.04 1328.26,1475.65 1321.23,1482.96L1321.23,1468.04L1282,1468.04L1282,1614.81L1321.23,1614.81L1321.23,1560.6C1321.23,1558.55 1321.23,1556.2 1321.23,1554.15L1321.23,1532.47C1321.52,1515.76 1324.16,1502.58 1349.38,1502.58C1369.9,1502.29 1372.84,1523.97 1373.42,1532.76L1373.72,1536.28L1373.72,1614.81L1413.83,1614.81L1413.83,1541.55L1413.83,1540.67C1413.83,1520.16 1412.65,1502.58 1441.98,1502.58C1462.5,1502.29 1465.73,1523.97 1466.02,1532.76L1466.31,1548L1467.19,1614.81L1506.42,1614.81L1506.42,1541.55C1506.42,1487.94 1477.44,1468.04 1445.2,1468.04Z" style="fill:rgb(2,0,0);fill-rule:nonzero;"/>
            <path d="M1579.99,1617.15C1620.15,1617.15 1652.65,1583.2 1652.65,1541.28C1652.65,1499.65 1620.15,1465.69 1579.99,1465.69C1539.83,1465.69 1507.05,1499.65 1507.05,1541.28C1507.05,1583.2 1539.83,1617.15 1579.99,1617.15ZM1545.98,1541.28C1545.98,1519.58 1561.23,1501.99 1580.29,1501.99C1599.05,1501.99 1614,1519.58 1614,1541.28C1614,1563.26 1599.05,1580.85 1580.29,1580.85C1561.23,1580.85 1545.98,1563.26 1545.98,1541.28Z" style="fill:rgb(2,0,0);fill-rule:nonzero;"/>
            <path d="M1732.65,1468.33L1703.65,1533.07L1674.65,1468.33L1633.34,1468.33L1703.65,1614.81L1773.96,1468.33L1732.65,1468.33Z" style="fill:rgb(2,0,0);fill-rule:nonzero;"/>
            <path d="M1772.83,1409.72L1772.83,1448.07L1809.13,1448.07L1809.13,1409.72L1772.83,1409.72ZM1772.83,1468.29L1772.83,1614.81L1809.13,1614.81L1809.13,1468.29L1772.83,1468.29Z" style="fill:rgb(2,0,0);fill-rule:nonzero;"/>
            <path d="M1883.57,1470.09L1882.99,1470.09C1843.15,1470.09 1812.97,1502.87 1812.97,1542.74C1812.97,1583.49 1843.15,1616.27 1882.99,1616.27L1883.57,1616.27C1904.37,1616.27 1922.83,1607.2 1935.43,1592.86L1936.89,1591.1C1937.18,1590.81 1937.18,1590.81 1937.48,1590.52L1939.82,1587C1944.22,1581.44 1948.32,1574.69 1950.08,1569.12L1907.89,1568.53C1907.3,1569.7 1906.72,1570.88 1905.84,1571.76C1900.27,1577.92 1892.65,1581.73 1883.28,1581.73C1867.75,1581.73 1856.33,1571.17 1852.52,1555.62L1952.42,1555.62C1953.3,1551.23 1953.59,1548.3 1953.59,1543.62C1953.59,1502.87 1923.42,1470.09 1883.57,1470.09ZM1883.28,1504.63C1897.34,1504.63 1907.89,1513.14 1912.87,1526.35L1853.99,1526.35C1858.67,1513.14 1869.22,1504.63 1883.28,1504.63Z" style="fill:rgb(2,0,0);fill-rule:nonzero;"/>
            <path d="M1948.92,1569.41C1948.92,1589.92 1967.09,1616.29 2014.85,1616.29C2040.64,1616.29 2077.85,1608.09 2077.85,1571.17C2077.85,1543.04 2062.03,1526.33 2018.37,1525.45C1994.03,1525.45 1988.17,1519 1988.17,1514.31C1987.29,1503.17 2002.54,1500.53 2014.56,1500.53C2023.65,1500.53 2041.24,1503.17 2041.24,1513.72L2074.91,1513.72C2074.91,1493.21 2059.69,1466.87 2014.85,1466.87C1988.76,1466.87 1951.87,1476.52 1951.87,1512.84C1951.87,1543.62 1970.6,1552.71 2018.66,1554.18C2029.81,1554.47 2041.54,1554.47 2041.54,1565.9C2041.54,1581.14 2030.69,1579.39 2015.14,1579.39C2003.12,1579.39 1985.53,1579.97 1985.53,1569.42L1948.92,1569.41Z" style="fill:rgb(2,0,0);fill-rule:nonzero;"/>
        </g>
        <g transform="matrix(0.734165,0,0,0.963568,-57.1126,433.408)">
            <path d="M574.349,1031.44L514.863,1031.44L514.863,971.954L475.89,971.954L475.89,1031.44L416.404,1031.44L416.404,1070.41L475.89,1070.41L475.89,1129.9L514.863,1129.9L514.863,1070.41L574.349,1070.41L574.349,1031.44Z" style="fill:rgb(242,100,100);fill-rule:nonzero;"/>
        </g>
    </g>
</svg>
