<?xml version="1.0" encoding="UTF-8" standalone="no"?><!DOCTYPE svg PUBLIC "-//W3C//DTD SVG 1.1//EN" "http://www.w3.org/Graphics/SVG/1.1/DTD/svg11.dtd"><svg width="100%" height="100%" viewBox="0 0 113 53" version="1.1" xmlns="http://www.w3.org/2000/svg" xmlns:xlink="http://www.w3.org/1999/xlink" xml:space="preserve" style="fill-rule:evenodd;clip-rule:evenodd;stroke-linejoin:round;stroke-miterlimit:1.41421;"><rect id="Artboard1" x="0" y="0" width="112.747" height="52.775" style="fill:none;"/><path d="M87.591,8.757l-0.141,0c-2.674,0 -8.443,1.756 -10.34,5.901c-2.741,-4.145 -7.098,-5.901 -11.743,-5.901l-0.14,0c-3.027,0 -5.701,1.827 -7.39,3.583l0,-3.583l-9.415,0l0,35.225l9.415,0l0,-13.01c0,-0.493 0,-1.055 0,-1.547l0,-5.205c0.07,-4.008 0.704,-7.173 6.756,-7.173c4.927,-0.07 5.63,5.134 5.771,7.244l0.071,0.844l0,18.847l9.626,0l0,-17.582l0,-0.21c0,-4.923 -0.281,-9.143 6.756,-9.143c4.926,-0.07 5.7,5.134 5.771,7.244l0.07,3.657l0.211,16.034l9.415,0l0,-17.582c0,-12.866 -6.956,-17.643 -14.693,-17.643Z" style="fill:#020000;fill-rule:nonzero;"/><path d="M39.937,22.827l-11.223,0l0,-11.222l-7.353,0l0,11.222l-11.223,0l0,7.353l11.223,0l0,11.223l7.353,0l0,-11.223l11.223,0l0,-7.353Z" style="fill:#f26464;fill-rule:nonzero;"/></svg>