<?xml version="1.0" standalone="no"?>
<!DOCTYPE svg PUBLIC "-//W3C//DTD SVG 20010904//EN"
 "http://www.w3.org/TR/2001/REC-SVG-20010904/DTD/svg10.dtd">
<svg version="1.0" xmlns="http://www.w3.org/2000/svg"
 width="1808.000000pt" height="1808.000000pt" viewBox="0 0 1808.000000 1808.000000"
 preserveAspectRatio="xMidYMid meet">
<metadata>
Created by potrace 1.11, written by Peter Selinger 2001-2013
</metadata>
<g transform="translate(0.000000,1808.000000) scale(0.100000,-0.100000)"
fill="#000000" stroke="none">
<path d="M8137 11884 c-3 -3 -92 -7 -198 -7 l-192 -2 -1 -2800 c-1 -1540 0
-2807 2 -2816 3 -13 51 -15 420 -14 232 0 423 -3 430 -8 6 -5 12 -6 12 -1 0 5
144 9 320 8 176 0 320 2 321 5 1 3 2 749 4 1656 2 1501 5 1757 20 1835 3 14 7
44 10 67 2 24 9 62 16 85 6 24 13 53 15 66 3 13 16 51 29 85 14 34 25 65 25
70 0 4 4 13 10 20 5 6 26 37 46 67 46 69 169 190 193 190 5 0 16 6 23 13 15
14 150 76 176 80 9 1 22 5 27 9 11 6 68 20 100 24 11 1 31 5 44 8 25 6 95 14
171 21 67 6 290 6 330 -1 172 -27 334 -111 441 -228 24 -27 52 -57 62 -67 9
-10 17 -22 17 -25 0 -3 14 -25 31 -50 30 -44 75 -135 70 -143 -2 -2 1 -7 6
-10 24 -16 94 -255 109 -374 2 -15 6 -39 9 -55 3 -15 8 -47 11 -72 10 -98 14
-137 18 -185 2 -27 4 -735 5 -1571 l1 -1521 113 1 c61 1 122 -2 135 -6 12 -4
22 -4 22 0 0 9 882 8 898 -2 7 -4 12 -4 12 1 0 4 81 8 180 7 l180 0 1 1620 c0
892 2 1650 4 1686 4 90 16 213 29 296 12 77 73 266 89 272 4 2 7 9 7 15 0 22
73 121 130 177 32 30 82 70 113 88 59 36 183 89 223 96 13 3 27 7 32 9 4 3 26
8 48 11 22 4 51 9 64 11 27 6 91 14 155 20 56 6 273 6 315 1 95 -12 171 -33
242 -68 32 -15 63 -28 68 -28 6 0 10 -4 10 -10 0 -5 7 -10 15 -10 8 0 15 -4
15 -8 0 -4 12 -15 28 -24 33 -20 131 -119 166 -168 14 -19 29 -39 33 -45 5 -5
30 -53 56 -105 50 -102 104 -258 114 -327 3 -24 8 -43 12 -43 3 0 6 -15 5 -32
0 -18 2 -37 5 -43 3 -5 6 -21 7 -35 2 -14 5 -45 8 -70 11 -82 18 -437 31
-1465 9 -739 24 -1802 25 -1816 0 -3 172 -5 383 -4 213 0 388 -3 395 -8 6 -5
12 -6 12 -1 0 5 161 9 357 9 l358 0 0 1503 c0 826 -2 1502 -5 1502 -3 0 -5 37
-6 83 0 74 -7 172 -19 282 -7 58 -13 110 -15 110 -1 0 -3 20 -6 45 -6 62 -53
294 -73 358 -5 18 -10 36 -11 40 -4 26 -14 64 -31 110 -10 28 -19 53 -18 55 0
3 -10 33 -26 78 -8 20 -11 39 -8 43 4 3 1 6 -5 6 -7 0 -12 8 -12 18 0 10 -4
22 -8 27 -5 6 -15 26 -22 45 -38 101 -191 379 -246 450 -169 215 -278 326
-434 444 -151 114 -351 224 -500 276 -19 7 -44 16 -55 21 -27 11 -145 48 -170
52 -11 2 -27 7 -35 10 -18 7 -170 37 -220 43 -19 2 -46 6 -60 9 -128 26 -511
25 -645 -1 -11 -2 -33 -7 -50 -9 -16 -3 -38 -8 -47 -11 -9 -3 -25 -7 -35 -9
-97 -22 -149 -37 -160 -47 -7 -6 -13 -8 -13 -4 0 14 -233 -79 -364 -146 -280
-141 -495 -323 -637 -537 -38 -57 -69 -109 -69 -116 0 -22 -22 -35 -36 -20 -8
7 -14 18 -14 24 0 6 -4 11 -8 11 -4 0 -16 14 -26 30 -38 65 -208 250 -312 340
-90 78 -243 186 -324 229 -117 62 -221 111 -233 111 -8 0 -17 3 -21 8 -4 4
-11 7 -14 8 -4 0 -14 4 -22 7 -49 21 -178 62 -255 81 -62 15 -67 17 -170 34
-269 48 -630 50 -777 6 -16 -5 -41 -10 -88 -20 -13 -3 -27 -8 -30 -12 -3 -4
-13 -8 -24 -10 -10 -2 -30 -8 -45 -13 -14 -6 -28 -11 -31 -11 -19 -4 -206
-102 -208 -109 -2 -5 -8 -9 -14 -9 -5 0 -41 -21 -80 -47 -40 -27 -78 -52 -87
-58 -32 -21 -178 -144 -229 -193 -30 -29 -55 -52 -56 -52 -1 0 -1 128 -1 284
l0 285 -225 1 c-124 0 -233 1 -242 1 -10 0 -155 -1 -322 -2 -168 0 -309 2
-314 5 -5 3 -12 3 -15 0z"/>
<path d="M3419 11395 c0 -16 -1 -420 -1 -897 l-1 -868 -66 0 c-36 -1 -440 -1
-897 -1 l-832 0 0 -590 0 -589 898 0 897 0 -1 -895 c-1 -589 2 -896 9 -898 9
-3 1153 -1 1165 2 3 0 5 404 5 896 l-1 895 898 0 898 0 0 589 0 590 -882 0
c-486 0 -890 0 -898 1 -14 0 -15 101 -15 897 l0 897 -588 1 -587 0 -1 -30z"/>
</g>
</svg>
