<?xml version="1.0" encoding="UTF-8" standalone="no"?><!DOCTYPE svg PUBLIC "-//W3C//DTD SVG 1.1//EN" "http://www.w3.org/Graphics/SVG/1.1/DTD/svg11.dtd"><svg width="100%" height="100%" viewBox="0 0 422 174" version="1.1" xmlns="http://www.w3.org/2000/svg" xmlns:xlink="http://www.w3.org/1999/xlink" xml:space="preserve" style="fill-rule:evenodd;clip-rule:evenodd;stroke-linejoin:round;stroke-miterlimit:1.41421;"><path id="path3" d="M206,1.8c13,0 50,7.1 50,43.5c0,29.3 -14,38 -25,40c-8,1.5 23,0 23,36.7c0,52 -45,50 -45,50l-75,0l0,-170.2l72,0Zm-30,41.5l0,25.7l25,0c0,0 10,-1.2 10,-13.5c0,-12.3 -10,-12.2 -10,-12.2l-25,0Zm0,62.7l0,26l25,0c0,0 10,-1 10,-14c0,-12 -10,-12 -10,-12l-25,0Zm-176,-104.2l0,170.2l47,0l0,-63l30,0l0,63l47,0l0,-170.2l-47,0l0,64.2l-30,0l0,-64.2l-47,0Z" style="fill:#fff;fill-rule:nonzero;"/><path d="M335.56,0.002l0.559,0.005l0.558,0.009l0.558,0.012l0.557,0.016l0.556,0.02l0.555,0.022l0.555,0.027l0.554,0.03l0.553,0.033l0.553,0.037l0.551,0.04l0.551,0.044l0.55,0.047l0.549,0.051l0.549,0.054l0.547,0.057l0.546,0.061l0.546,0.064l0.544,0.068l0.544,0.07l0.543,0.075l0.542,0.077l0.54,0.081l0.54,0.085l0.538,0.087l0.538,0.091l0.537,0.094l0.535,0.098l0.535,0.101l0.533,0.104l0.532,0.107l0.531,0.111l0.53,0.113l0.529,0.117l0.527,0.12l0.527,0.124l0.525,0.126l0.524,0.13l0.522,0.133l0.522,0.136l0.52,0.139l0.519,0.143l0.518,0.145l0.516,0.148l0.515,0.152l0.514,0.155l0.512,0.158l0.511,0.16l0.51,0.164l0.509,0.167l0.506,0.17l0.506,0.173l0.504,0.176l0.503,0.179l0.501,0.182l0.5,0.185l0.498,0.188l0.497,0.191l0.496,0.193l0.494,0.197l0.492,0.2l0.491,0.202l0.489,0.205l0.488,0.209l0.486,0.211l0.485,0.214l0.483,0.216l0.482,0.22l0.479,0.223l0.479,0.225l0.477,0.228l0.474,0.231l0.474,0.233l0.472,0.237l0.47,0.239l0.468,0.242l0.467,0.244l0.465,0.247l0.463,0.251l0.462,0.252l0.459,0.256l0.459,0.258l0.456,0.26l0.455,0.264l0.453,0.266l0.451,0.268l0.449,0.272l0.447,0.273l0.446,0.277l0.444,0.279l0.442,0.282l0.44,0.284l0.438,0.286l0.437,0.29l0.434,0.291l0.433,0.295l0.431,0.297l0.429,0.299l0.427,0.302l0.425,0.304l0.423,0.307l0.421,0.309l0.419,0.312l0.417,0.314l0.416,0.316l0.413,0.319l0.412,0.322l0.409,0.323l0.407,0.326l0.406,0.329l0.403,0.331l0.401,0.333l0.399,0.336l0.397,0.337l0.395,0.341l0.393,0.342l0.391,0.345l0.389,0.347l0.387,0.349l0.384,0.352l0.383,0.354l0.38,0.356l0.378,0.359l0.376,0.36l0.374,0.363l0.372,0.365l0.369,0.368l0.368,0.369l0.365,0.372l0.363,0.374l0.36,0.376l0.359,0.378l0.356,0.38l0.354,0.383l0.351,0.384l0.35,0.387l0.347,0.389l0.345,0.391l0.343,0.393l0.34,0.395l0.337,0.397l0.336,0.399l0.333,0.402l0.331,0.403l0.328,0.405l0.327,0.407l0.323,0.409l0.322,0.412l0.319,0.413l0.316,0.415l0.314,0.418l0.312,0.419l0.309,0.421l0.307,0.423l0.304,0.425l0.302,0.427l0.299,0.429l0.297,0.431l0.295,0.433l0.291,0.434l0.289,0.437l0.287,0.438l0.284,0.44l0.282,0.442l0.279,0.444l0.276,0.446l0.274,0.447l0.272,0.449l0.268,0.452l0.266,0.452l0.263,0.454l0.261,0.457l0.259,0.459l0.255,0.459l0.252,0.462l0.25,0.463l0.248,0.465l0.244,0.466l0.242,0.469l0.239,0.47l0.237,0.472l0.233,0.474l0.231,0.474l0.228,0.477l0.225,0.478l0.223,0.481l0.22,0.481l0.216,0.483l0.214,0.485l0.211,0.486l0.208,0.488l0.206,0.49l0.202,0.49l0.2,0.492l0.197,0.495l0.193,0.495l0.191,0.497l0.188,0.498l0.185,0.5l0.182,0.501l0.179,0.503l0.176,0.504l0.173,0.505l0.17,0.508l0.167,0.508l0.163,0.509l0.162,0.512l0.157,0.512l0.155,0.514l0.151,0.514l0.149,0.517l0.146,0.518l0.142,0.519l0.139,0.52l0.136,0.522l0.133,0.522l0.13,0.524l0.126,0.525l0.124,0.527l0.12,0.528l0.117,0.528l0.113,0.53l0.111,0.531l0.107,0.532l0.104,0.534l0.101,0.534l0.098,0.535l0.094,0.536l0.091,0.538l0.087,0.539l0.085,0.539l0.081,0.542l0.077,0.541l0.075,0.543l0.07,0.544l0.068,0.544l0.064,0.545l0.061,0.547l0.057,0.547l0.054,0.549l0.051,0.549l0.047,0.55l0.044,0.551l0.04,0.551l0.037,0.553l0.033,0.553l0.03,0.554l0.027,0.555l0.022,0.555l0.02,0.557l0.016,0.556l0.012,0.558l0.009,0.558l0.005,0.56l0.002,0.559l-0.002,0.559l-0.005,0.56l-0.009,0.558l-0.012,0.558l-0.016,0.556l-0.02,0.557l-0.022,0.555l-0.027,0.555l-0.03,0.554l-0.033,0.553l-0.037,0.553l-0.04,0.551l-0.044,0.551l-0.047,0.55l-0.051,0.549l-0.054,0.549l-0.057,0.547l-0.061,0.547l-0.064,0.545l-0.068,0.544l-0.07,0.544l-0.075,0.543l-0.077,0.541l-0.081,0.542l-0.085,0.539l-0.087,0.539l-0.091,0.538l-0.094,0.536l-0.098,0.535l-0.101,0.534l-0.104,0.534l-0.107,0.532l-0.111,0.531l-0.113,0.53l-0.117,0.528l-0.12,0.528l-0.124,0.527l-0.126,0.525l-0.13,0.524l-0.133,0.522l-0.136,0.522l-0.139,0.52l-0.142,0.519l-0.146,0.518l-0.149,0.517l-0.151,0.514l-0.155,0.514l-0.157,0.512l-0.162,0.512l-0.163,0.509l-0.167,0.508l-0.17,0.508l-0.173,0.505l-0.176,0.504l-0.179,0.503l-0.182,0.501l-0.185,0.5l-0.188,0.498l-0.191,0.497l-0.193,0.495l-0.197,0.495l-0.2,0.492l-0.202,0.49l-0.206,0.49l-0.208,0.488l-0.211,0.486l-0.214,0.485l-0.216,0.483l-0.22,0.481l-0.223,0.481l-0.225,0.478l-0.228,0.477l-0.231,0.474l-0.233,0.474l-0.237,0.472l-0.239,0.469l-0.242,0.47l-0.244,0.466l-0.248,0.465l-0.25,0.463l-0.252,0.462l-0.255,0.459l-0.259,0.459l-0.261,0.457l-0.263,0.454l-0.266,0.452l-0.268,0.452l-0.272,0.449l-0.274,0.447l-0.276,0.446l-0.279,0.444l-0.282,0.442l-0.284,0.44l-0.287,0.439l-0.289,0.436l-0.291,0.434l-0.295,0.433l-0.297,0.431l-0.299,0.429l-0.302,0.427l-0.304,0.425l-0.307,0.423l-0.309,0.421l-0.312,0.419l-0.314,0.418l-0.316,0.415l-0.319,0.413l-0.322,0.411l-0.324,0.41l-0.326,0.407l-0.328,0.406l-0.331,0.402l-0.333,0.402l-0.336,0.399l-0.337,0.397l-0.34,0.395l-0.343,0.393l-0.345,0.391l-0.347,0.389l-0.35,0.387l-0.351,0.384l-0.354,0.383l-0.356,0.38l-0.359,0.378l-0.36,0.376l-0.363,0.374l-0.365,0.372l-0.368,0.369l-0.369,0.368l-0.372,0.365l-0.374,0.363l-0.376,0.361l-0.378,0.358l-0.38,0.355l-0.382,0.355l-0.385,0.352l-0.387,0.349l-0.389,0.347l-0.391,0.345l-0.393,0.342l-0.395,0.341l-0.397,0.337l-0.399,0.336l-0.401,0.333l-0.403,0.331l-0.406,0.329l-0.407,0.326l-0.409,0.323l-0.412,0.322l-0.413,0.318l-0.415,0.317l-0.418,0.314l-0.419,0.312l-0.421,0.309l-0.423,0.307l-0.425,0.304l-0.427,0.302l-0.429,0.299l-0.431,0.297l-0.433,0.295l-0.434,0.291l-0.437,0.29l-0.438,0.286l-0.44,0.284l-0.442,0.282l-0.444,0.279l-0.446,0.277l-0.447,0.273l-0.449,0.272l-0.452,0.268l-0.452,0.266l-0.455,0.263l-0.456,0.261l-0.458,0.258l-0.46,0.256l-0.462,0.252l-0.463,0.25l-0.465,0.248l-0.467,0.245l-0.468,0.241l-0.47,0.239l-0.473,0.237l-0.473,0.233l-0.474,0.231l-0.477,0.228l-0.479,0.225l-0.479,0.223l-0.482,0.22l-0.483,0.216l-0.484,0.214l-0.487,0.211l-0.488,0.209l-0.489,0.205l-0.491,0.203l-0.492,0.199l-0.494,0.197l-0.496,0.194l-0.497,0.19l-0.498,0.188l-0.5,0.185l-0.501,0.182l-0.503,0.179l-0.504,0.176l-0.506,0.173l-0.506,0.17l-0.509,0.167l-0.51,0.164l-0.51,0.16l-0.513,0.158l-0.514,0.155l-0.515,0.152l-0.516,0.148l-0.518,0.145l-0.519,0.143l-0.52,0.139l-0.521,0.136l-0.523,0.133l-0.524,0.13l-0.525,0.126l-0.527,0.124l-0.527,0.12l-0.529,0.117l-0.53,0.113l-0.531,0.111l-0.532,0.107l-0.533,0.104l-0.535,0.101l-0.536,0.098l-0.536,0.094l-0.537,0.091l-0.539,0.087l-0.54,0.085l-0.541,0.081l-0.541,0.077l-0.543,0.074l-0.544,0.071l-0.544,0.068l-0.546,0.064l-0.546,0.061l-0.547,0.057l-0.549,0.054l-0.549,0.051l-0.55,0.047l-0.551,0.044l-0.551,0.04l-0.553,0.037l-0.553,0.033l-0.554,0.03l-0.555,0.027l-0.555,0.022l-0.557,0.02l-0.556,0.016l-0.558,0.012l-0.559,0.009l-0.558,0.005l-0.56,0.002l-0.56,-0.002l-0.558,-0.005l-0.559,-0.009l-0.558,-0.012l-0.556,-0.016l-0.557,-0.02l-0.555,-0.022l-0.555,-0.027l-0.554,-0.03l-0.553,-0.033l-0.553,-0.037l-0.551,-0.04l-0.551,-0.044l-0.55,-0.047l-0.549,-0.051l-0.549,-0.054l-0.547,-0.057l-0.546,-0.061l-0.546,-0.064l-0.544,-0.068l-0.544,-0.071l-0.543,-0.074l-0.541,-0.077l-0.541,-0.081l-0.54,-0.085l-0.539,-0.087l-0.537,-0.091l-0.536,-0.094l-0.536,-0.098l-0.535,-0.101l-0.533,-0.104l-0.532,-0.107l-0.531,-0.111l-0.53,-0.113l-0.529,-0.117l-0.527,-0.12l-0.527,-0.124l-0.524,-0.126l-0.525,-0.13l-0.523,-0.133l-0.521,-0.136l-0.52,-0.139l-0.519,-0.142l-0.518,-0.146l-0.516,-0.148l-0.515,-0.152l-0.514,-0.155l-0.513,-0.158l-0.51,-0.16l-0.51,-0.164l-0.509,-0.167l-0.506,-0.17l-0.506,-0.173l-0.504,-0.176l-0.503,-0.179l-0.501,-0.182l-0.5,-0.185l-0.498,-0.188l-0.497,-0.191l-0.496,-0.193l-0.494,-0.197l-0.492,-0.2l-0.491,-0.202l-0.489,-0.205l-0.488,-0.209l-0.486,-0.211l-0.485,-0.214l-0.483,-0.216l-0.482,-0.22l-0.48,-0.223l-0.478,-0.225l-0.476,-0.228l-0.476,-0.231l-0.473,-0.233l-0.472,-0.237l-0.47,-0.239l-0.468,-0.241l-0.467,-0.245l-0.465,-0.248l-0.463,-0.25l-0.462,-0.252l-0.46,-0.256l-0.458,-0.258l-0.456,-0.26l-0.455,-0.264l-0.452,-0.266l-0.452,-0.268l-0.449,-0.272l-0.448,-0.274l-0.445,-0.276l-0.444,-0.279l-0.442,-0.282l-0.44,-0.284l-0.438,-0.286l-0.437,-0.29l-0.434,-0.291l-0.433,-0.295l-0.431,-0.297l-0.429,-0.299l-0.427,-0.302l-0.425,-0.304l-0.423,-0.307l-0.421,-0.309l-0.419,-0.311l-0.418,-0.315l-0.415,-0.317l-0.413,-0.318l-0.412,-0.322l-0.409,-0.323l-0.407,-0.326l-0.405,-0.329l-0.404,-0.331l-0.401,-0.333l-0.399,-0.336l-0.397,-0.337l-0.395,-0.341l-0.393,-0.342l-0.391,-0.345l-0.389,-0.347l-0.387,-0.349l-0.384,-0.352l-0.383,-0.354l-0.38,-0.356l-0.378,-0.358l-0.376,-0.361l-0.375,-0.364l-0.371,-0.364l-0.369,-0.367l-0.367,-0.37l-0.366,-0.372l-0.363,-0.374l-0.361,-0.376l-0.358,-0.378l-0.356,-0.38l-0.354,-0.383l-0.352,-0.384l-0.349,-0.387l-0.347,-0.389l-0.345,-0.391l-0.342,-0.392l-0.34,-0.395l-0.339,-0.398l-0.335,-0.399l-0.333,-0.401l-0.331,-0.403l-0.328,-0.406l-0.327,-0.407l-0.323,-0.41l-0.322,-0.411l-0.319,-0.413l-0.316,-0.416l-0.314,-0.417l-0.312,-0.419l-0.309,-0.421l-0.307,-0.424l-0.304,-0.424l-0.302,-0.427l-0.299,-0.429l-0.297,-0.431l-0.295,-0.433l-0.291,-0.434l-0.29,-0.437l-0.286,-0.438l-0.284,-0.44l-0.282,-0.442l-0.279,-0.444l-0.276,-0.446l-0.274,-0.447l-0.272,-0.449l-0.268,-0.452l-0.266,-0.452l-0.264,-0.455l-0.26,-0.456l-0.258,-0.458l-0.256,-0.46l-0.252,-0.462l-0.25,-0.463l-0.248,-0.465l-0.244,-0.467l-0.242,-0.469l-0.239,-0.469l-0.237,-0.472l-0.233,-0.473l-0.231,-0.475l-0.228,-0.477l-0.226,-0.479l-0.222,-0.48l-0.22,-0.481l-0.216,-0.484l-0.214,-0.484l-0.211,-0.486l-0.208,-0.488l-0.206,-0.489l-0.203,-0.492l-0.199,-0.492l-0.197,-0.493l-0.193,-0.496l-0.191,-0.497l-0.188,-0.498l-0.185,-0.5l-0.182,-0.502l-0.179,-0.502l-0.176,-0.504l-0.173,-0.506l-0.17,-0.507l-0.167,-0.508l-0.164,-0.51l-0.16,-0.51l-0.158,-0.513l-0.155,-0.514l-0.152,-0.515l-0.148,-0.517l-0.145,-0.517l-0.143,-0.519l-0.139,-0.52l-0.136,-0.522l-0.133,-0.522l-0.13,-0.524l-0.126,-0.525l-0.124,-0.527l-0.12,-0.528l-0.117,-0.528l-0.113,-0.53l-0.111,-0.531l-0.107,-0.532l-0.104,-0.534l-0.101,-0.534l-0.098,-0.535l-0.094,-0.537l-0.091,-0.537l-0.087,-0.539l-0.085,-0.54l-0.081,-0.541l-0.077,-0.541l-0.074,-0.543l-0.071,-0.543l-0.068,-0.545l-0.064,-0.545l-0.061,-0.547l-0.057,-0.548l-0.054,-0.547l-0.051,-0.55l-0.047,-0.55l-0.044,-0.551l-0.04,-0.551l-0.037,-0.553l-0.033,-0.553l-0.03,-0.554l-0.027,-0.555l-0.022,-0.555l-0.02,-0.557l-0.016,-0.556l-0.012,-0.558l-0.009,-0.559l-0.005,-0.558l-0.002,-0.56l0.002,-0.56l0.005,-0.558l0.009,-0.559l0.012,-0.558l0.016,-0.556l0.02,-0.557l0.022,-0.555l0.027,-0.555l0.03,-0.554l0.033,-0.553l0.037,-0.553l0.04,-0.551l0.044,-0.551l0.047,-0.55l0.051,-0.55l0.054,-0.547l0.057,-0.548l0.061,-0.547l0.064,-0.545l0.068,-0.545l0.071,-0.543l0.074,-0.543l0.077,-0.541l0.081,-0.541l0.085,-0.54l0.087,-0.539l0.091,-0.537l0.094,-0.537l0.098,-0.535l0.101,-0.534l0.104,-0.534l0.107,-0.532l0.111,-0.531l0.113,-0.53l0.117,-0.528l0.12,-0.528l0.124,-0.527l0.126,-0.525l0.13,-0.524l0.133,-0.522l0.136,-0.522l0.139,-0.52l0.143,-0.519l0.145,-0.517l0.148,-0.517l0.152,-0.515l0.155,-0.514l0.158,-0.513l0.16,-0.51l0.164,-0.51l0.167,-0.508l0.17,-0.507l0.173,-0.506l0.176,-0.504l0.179,-0.502l0.182,-0.502l0.185,-0.5l0.188,-0.498l0.191,-0.497l0.193,-0.496l0.197,-0.493l0.199,-0.492l0.203,-0.492l0.206,-0.489l0.208,-0.488l0.211,-0.486l0.214,-0.484l0.216,-0.484l0.22,-0.481l0.222,-0.48l0.226,-0.479l0.228,-0.477l0.231,-0.475l0.233,-0.473l0.237,-0.472l0.239,-0.47l0.242,-0.468l0.244,-0.467l0.248,-0.465l0.25,-0.463l0.252,-0.462l0.256,-0.46l0.258,-0.458l0.26,-0.456l0.264,-0.455l0.266,-0.452l0.268,-0.452l0.272,-0.449l0.274,-0.447l0.276,-0.446l0.279,-0.444l0.282,-0.442l0.284,-0.44l0.286,-0.438l0.29,-0.437l0.292,-0.434l0.294,-0.433l0.297,-0.431l0.299,-0.429l0.302,-0.427l0.304,-0.424l0.307,-0.424l0.309,-0.421l0.312,-0.419l0.314,-0.417l0.316,-0.416l0.319,-0.413l0.322,-0.412l0.323,-0.409l0.327,-0.407l0.328,-0.405l0.331,-0.404l0.333,-0.401l0.335,-0.399l0.339,-0.398l0.34,-0.395l0.342,-0.392l0.345,-0.391l0.347,-0.389l0.349,-0.387l0.352,-0.384l0.354,-0.383l0.356,-0.38l0.358,-0.378l0.361,-0.376l0.363,-0.374l0.366,-0.372l0.367,-0.37l0.369,-0.367l0.372,-0.365l0.374,-0.363l0.376,-0.36l0.378,-0.359l0.38,-0.356l0.383,-0.354l0.384,-0.352l0.387,-0.349l0.389,-0.347l0.391,-0.345l0.393,-0.342l0.395,-0.341l0.397,-0.337l0.399,-0.336l0.401,-0.333l0.404,-0.331l0.405,-0.329l0.407,-0.326l0.409,-0.323l0.412,-0.322l0.413,-0.319l0.416,-0.316l0.417,-0.314l0.419,-0.312l0.421,-0.309l0.423,-0.307l0.425,-0.304l0.427,-0.302l0.429,-0.299l0.431,-0.297l0.433,-0.295l0.434,-0.291l0.437,-0.29l0.438,-0.286l0.44,-0.284l0.442,-0.282l0.444,-0.279l0.445,-0.276l0.448,-0.274l0.449,-0.272l0.451,-0.268l0.453,-0.266l0.455,-0.264l0.456,-0.26l0.458,-0.258l0.46,-0.256l0.462,-0.252l0.463,-0.25l0.465,-0.248l0.467,-0.244l0.469,-0.242l0.469,-0.239l0.472,-0.237l0.473,-0.233l0.476,-0.231l0.476,-0.228l0.478,-0.225l0.48,-0.223l0.482,-0.22l0.483,-0.216l0.485,-0.214l0.486,-0.211l0.488,-0.209l0.489,-0.205l0.491,-0.202l0.492,-0.2l0.494,-0.197l0.496,-0.193l0.497,-0.191l0.498,-0.188l0.5,-0.185l0.501,-0.182l0.503,-0.179l0.504,-0.176l0.506,-0.173l0.507,-0.17l0.508,-0.167l0.509,-0.164l0.512,-0.16l0.512,-0.158l0.514,-0.155l0.515,-0.152l0.516,-0.148l0.518,-0.146l0.519,-0.142l0.52,-0.139l0.521,-0.136l0.523,-0.133l0.524,-0.13l0.525,-0.126l0.527,-0.124l0.527,-0.12l0.529,-0.117l0.53,-0.113l0.531,-0.111l0.532,-0.107l0.534,-0.104l0.534,-0.101l0.535,-0.098l0.537,-0.094l0.538,-0.091l0.538,-0.087l0.54,-0.085l0.541,-0.081l0.541,-0.077l0.543,-0.074l0.544,-0.071l0.544,-0.068l0.546,-0.064l0.546,-0.061l0.547,-0.057l0.549,-0.054l0.549,-0.051l0.55,-0.047l0.551,-0.044l0.551,-0.04l0.553,-0.037l0.553,-0.033l0.554,-0.03l0.555,-0.027l0.555,-0.022l0.556,-0.02l0.557,-0.016l0.558,-0.012l0.558,-0.009l0.559,-0.005l0.56,-0.002l0.56,0.002Zm-0.841,43.999l-0.28,0.003l-0.279,0.004l-0.279,0.006l-0.278,0.008l-0.277,0.01l-0.277,0.011l-0.276,0.013l-0.276,0.015l-0.275,0.017l-0.275,0.018l-0.274,0.02l-0.273,0.022l-0.273,0.023l-0.272,0.025l-0.271,0.027l-0.271,0.029l-0.27,0.03l-0.27,0.031l-0.269,0.034l-0.269,0.035l-0.267,0.036l-0.268,0.039l-0.267,0.04l-0.266,0.041l-0.265,0.043l-0.265,0.045l-0.264,0.047l-0.264,0.048l-0.263,0.049l-0.262,0.051l-0.262,0.053l-0.261,0.054l-0.26,0.056l-0.26,0.058l-0.26,0.059l-0.258,0.061l-0.259,0.062l-0.257,0.063l-0.256,0.066l-0.257,0.067l-0.255,0.068l-0.255,0.07l-0.254,0.071l-0.254,0.073l-0.253,0.075l-0.252,0.076l-0.252,0.077l-0.251,0.079l-0.25,0.081l-0.25,0.082l-0.249,0.083l-0.248,0.085l-0.248,0.086l-0.247,0.088l-0.246,0.09l-0.245,0.091l-0.246,0.092l-0.244,0.094l-0.243,0.095l-0.243,0.097l-0.242,0.098l-0.242,0.099l-0.24,0.101l-0.241,0.103l-0.239,0.104l-0.238,0.105l-0.238,0.107l-0.237,0.108l-0.236,0.109l-0.236,0.111l-0.235,0.113l-0.234,0.113l-0.233,0.116l-0.233,0.116l-0.232,0.118l-0.231,0.119l-0.23,0.121l-0.229,0.122l-0.229,0.123l-0.228,0.125l-0.227,0.126l-0.226,0.128l-0.226,0.129l-0.225,0.13l-0.223,0.131l-0.223,0.133l-0.222,0.134l-0.222,0.135l-0.22,0.137l-0.22,0.138l-0.218,0.14l-0.219,0.14l-0.216,0.142l-0.216,0.143l-0.216,0.145l-0.214,0.146l-0.214,0.147l-0.212,0.148l-0.212,0.15l-0.211,0.151l-0.209,0.152l-0.209,0.153l-0.208,0.155l-0.207,0.156l-0.206,0.157l-0.205,0.158l-0.204,0.159l-0.204,0.161l-0.202,0.162l-0.201,0.163l-0.2,0.164l-0.199,0.166l-0.199,0.166l-0.197,0.169l-0.196,0.168l-0.196,0.171l-0.194,0.171l-0.193,0.172l-0.192,0.174l-0.192,0.175l-0.189,0.176l-0.189,0.177l-0.189,0.178l-0.186,0.179l-0.186,0.18l-0.185,0.182l-0.184,0.183l-0.182,0.183l-0.181,0.185l-0.181,0.186l-0.179,0.186l-0.179,0.189l-0.176,0.189l-0.176,0.19l-0.175,0.191l-0.173,0.192l-0.173,0.193l-0.171,0.194l-0.171,0.196l-0.169,0.196l-0.167,0.197l-0.167,0.198l-0.166,0.2l-0.164,0.2l-0.163,0.201l-0.162,0.202l-0.161,0.204l-0.159,0.204l-0.158,0.205l-0.157,0.206l-0.156,0.207l-0.155,0.208l-0.153,0.209l-0.152,0.209l-0.151,0.211l-0.15,0.212l-0.148,0.213l-0.147,0.213l-0.146,0.214l-0.145,0.216l-0.142,0.215l-0.142,0.217l-0.141,0.218l-0.14,0.219l-0.138,0.22l-0.136,0.22l-0.136,0.222l-0.134,0.222l-0.133,0.222l-0.131,0.224l-0.13,0.225l-0.129,0.226l-0.128,0.226l-0.126,0.227l-0.125,0.228l-0.123,0.228l-0.122,0.23l-0.121,0.23l-0.119,0.231l-0.118,0.232l-0.116,0.233l-0.116,0.233l-0.113,0.234l-0.113,0.235l-0.11,0.235l-0.11,0.237l-0.108,0.237l-0.107,0.237l-0.105,0.24l-0.104,0.239l-0.103,0.24l-0.101,0.241l-0.099,0.24l-0.098,0.243l-0.097,0.243l-0.095,0.243l-0.094,0.245l-0.093,0.245l-0.09,0.245l-0.09,0.246l-0.088,0.247l-0.086,0.248l-0.085,0.248l-0.083,0.249l-0.082,0.25l-0.081,0.25l-0.079,0.251l-0.077,0.252l-0.076,0.252l-0.075,0.253l-0.073,0.253l-0.071,0.255l-0.07,0.255l-0.068,0.255l-0.067,0.256l-0.066,0.257l-0.063,0.257l-0.062,0.259l-0.061,0.258l-0.059,0.259l-0.058,0.261l-0.056,0.26l-0.054,0.262l-0.053,0.261l-0.051,0.262l-0.049,0.263l-0.048,0.264l-0.047,0.264l-0.045,0.265l-0.043,0.266l-0.041,0.265l-0.04,0.267l-0.039,0.267l-0.036,0.268l-0.035,0.269l-0.034,0.269l-0.031,0.27l-0.03,0.269l-0.029,0.271l-0.027,0.272l-0.025,0.272l-0.023,0.273l-0.022,0.273l-0.02,0.274l-0.018,0.275l-0.017,0.275l-0.015,0.275l-0.013,0.277l-0.011,0.277l-0.01,0.277l-0.008,0.278l-0.006,0.279l-0.004,0.279l-0.003,0.281l-0.001,0.28l0.001,0.28l0.003,0.281l0.004,0.279l0.006,0.279l0.008,0.278l0.01,0.277l0.011,0.277l0.013,0.277l0.015,0.275l0.017,0.275l0.018,0.275l0.02,0.274l0.022,0.273l0.023,0.272l0.025,0.273l0.027,0.272l0.029,0.271l0.03,0.269l0.031,0.27l0.034,0.269l0.035,0.269l0.036,0.268l0.039,0.267l0.04,0.267l0.041,0.265l0.043,0.266l0.045,0.265l0.047,0.264l0.048,0.264l0.049,0.263l0.051,0.262l0.053,0.261l0.054,0.262l0.056,0.26l0.058,0.261l0.059,0.259l0.061,0.258l0.062,0.259l0.063,0.257l0.066,0.257l0.067,0.256l0.068,0.255l0.07,0.255l0.071,0.255l0.073,0.253l0.075,0.253l0.076,0.252l0.077,0.252l0.079,0.251l0.081,0.25l0.082,0.25l0.083,0.249l0.085,0.248l0.086,0.248l0.088,0.247l0.09,0.246l0.09,0.245l0.093,0.246l0.094,0.244l0.095,0.243l0.097,0.243l0.098,0.243l0.099,0.24l0.101,0.241l0.103,0.24l0.104,0.239l0.105,0.24l0.107,0.237l0.108,0.237l0.11,0.237l0.11,0.235l0.113,0.235l0.113,0.234l0.116,0.233l0.116,0.233l0.118,0.232l0.119,0.231l0.121,0.23l0.122,0.229l0.123,0.229l0.125,0.228l0.126,0.227l0.128,0.226l0.129,0.226l0.13,0.225l0.131,0.223l0.133,0.223l0.134,0.222l0.135,0.222l0.137,0.22l0.138,0.22l0.14,0.219l0.141,0.218l0.141,0.217l0.143,0.215l0.145,0.216l0.146,0.214l0.147,0.213l0.148,0.213l0.15,0.212l0.151,0.211l0.152,0.209l0.153,0.209l0.155,0.208l0.156,0.207l0.157,0.206l0.158,0.205l0.16,0.205l0.16,0.203l0.162,0.202l0.163,0.201l0.164,0.2l0.166,0.2l0.167,0.198l0.167,0.197l0.169,0.196l0.17,0.196l0.172,0.194l0.173,0.193l0.173,0.192l0.175,0.192l0.176,0.189l0.176,0.189l0.179,0.189l0.179,0.186l0.18,0.186l0.182,0.185l0.182,0.183l0.184,0.183l0.185,0.182l0.186,0.18l0.186,0.179l0.189,0.178l0.189,0.177l0.189,0.176l0.192,0.175l0.192,0.174l0.193,0.172l0.194,0.171l0.196,0.171l0.196,0.169l0.197,0.168l0.199,0.166l0.199,0.166l0.2,0.164l0.201,0.163l0.202,0.162l0.204,0.161l0.204,0.159l0.205,0.159l0.206,0.156l0.207,0.156l0.208,0.155l0.209,0.153l0.209,0.152l0.211,0.151l0.212,0.15l0.213,0.148l0.213,0.147l0.214,0.146l0.216,0.145l0.215,0.143l0.217,0.141l0.219,0.141l0.218,0.14l0.22,0.138l0.22,0.137l0.222,0.135l0.222,0.134l0.223,0.133l0.223,0.131l0.225,0.13l0.226,0.129l0.226,0.128l0.227,0.126l0.228,0.125l0.229,0.123l0.229,0.122l0.23,0.12l0.231,0.12l0.232,0.118l0.232,0.116l0.234,0.116l0.234,0.113l0.235,0.113l0.236,0.111l0.236,0.109l0.237,0.108l0.238,0.107l0.238,0.105l0.24,0.104l0.24,0.103l0.24,0.101l0.242,0.099l0.242,0.098l0.243,0.097l0.243,0.095l0.244,0.094l0.246,0.093l0.245,0.09l0.246,0.09l0.247,0.088l0.248,0.086l0.248,0.085l0.249,0.084l0.25,0.081l0.25,0.081l0.251,0.079l0.252,0.077l0.252,0.076l0.253,0.075l0.254,0.073l0.254,0.071l0.255,0.07l0.255,0.068l0.257,0.067l0.256,0.066l0.257,0.063l0.259,0.062l0.258,0.061l0.26,0.059l0.26,0.058l0.26,0.056l0.261,0.054l0.262,0.053l0.262,0.051l0.263,0.049l0.264,0.048l0.264,0.047l0.265,0.045l0.266,0.043l0.266,0.041l0.266,0.04l0.267,0.039l0.269,0.036l0.268,0.035l0.269,0.034l0.27,0.031l0.27,0.03l0.271,0.029l0.271,0.027l0.272,0.025l0.273,0.023l0.273,0.022l0.274,0.02l0.275,0.018l0.275,0.017l0.275,0.015l0.277,0.013l0.277,0.011l0.277,0.01l0.278,0.008l0.279,0.006l0.279,0.004l0.28,0.003l0.281,0.001l0.281,-0.001l0.28,-0.003l0.279,-0.004l0.279,-0.006l0.278,-0.008l0.277,-0.01l0.277,-0.011l0.277,-0.013l0.275,-0.015l0.275,-0.017l0.275,-0.018l0.274,-0.02l0.273,-0.022l0.273,-0.023l0.272,-0.025l0.271,-0.027l0.271,-0.029l0.271,-0.03l0.269,-0.031l0.269,-0.034l0.269,-0.035l0.268,-0.036l0.267,-0.039l0.266,-0.04l0.266,-0.041l0.266,-0.043l0.265,-0.045l0.264,-0.047l0.264,-0.048l0.263,-0.049l0.262,-0.051l0.262,-0.053l0.261,-0.054l0.26,-0.056l0.26,-0.058l0.26,-0.059l0.258,-0.061l0.259,-0.062l0.257,-0.063l0.256,-0.066l0.257,-0.067l0.255,-0.068l0.255,-0.07l0.254,-0.071l0.254,-0.073l0.253,-0.075l0.252,-0.076l0.252,-0.077l0.251,-0.079l0.25,-0.081l0.249,-0.081l0.25,-0.084l0.248,-0.085l0.248,-0.086l0.247,-0.088l0.246,-0.09l0.245,-0.09l0.246,-0.093l0.244,-0.094l0.243,-0.095l0.243,-0.097l0.243,-0.098l0.241,-0.099l0.24,-0.101l0.24,-0.103l0.239,-0.104l0.239,-0.105l0.238,-0.107l0.237,-0.108l0.237,-0.109l0.235,-0.111l0.235,-0.113l0.234,-0.114l0.234,-0.115l0.232,-0.116l0.232,-0.118l0.231,-0.12l0.23,-0.12l0.229,-0.122l0.229,-0.123l0.228,-0.125l0.227,-0.126l0.226,-0.128l0.226,-0.128l0.225,-0.131l0.223,-0.131l0.223,-0.133l0.222,-0.134l0.222,-0.136l0.22,-0.136l0.22,-0.138l0.218,-0.14l0.219,-0.141l0.217,-0.141l0.216,-0.144l0.215,-0.144l0.214,-0.146l0.213,-0.147l0.213,-0.148l0.212,-0.15l0.211,-0.151l0.209,-0.152l0.209,-0.153l0.208,-0.155l0.207,-0.156l0.206,-0.156l0.206,-0.159l0.203,-0.159l0.204,-0.161l0.202,-0.162l0.201,-0.163l0.2,-0.164l0.199,-0.166l0.199,-0.166l0.197,-0.168l0.196,-0.169l0.196,-0.171l0.194,-0.171l0.193,-0.172l0.192,-0.174l0.191,-0.175l0.19,-0.175l0.189,-0.178l0.189,-0.178l0.186,-0.179l0.186,-0.18l0.185,-0.182l0.184,-0.182l0.182,-0.184l0.182,-0.185l0.18,-0.186l0.179,-0.187l0.179,-0.188l0.176,-0.188l0.176,-0.19l0.175,-0.192l0.174,-0.192l0.172,-0.193l0.172,-0.194l0.169,-0.195l0.17,-0.197l0.168,-0.197l0.166,-0.198l0.165,-0.199l0.165,-0.201l0.163,-0.201l0.162,-0.203l0.161,-0.202l0.159,-0.204l0.158,-0.206l0.158,-0.206l0.155,-0.207l0.155,-0.208l0.153,-0.209l0.152,-0.21l0.151,-0.21l0.15,-0.212l0.148,-0.213l0.147,-0.213l0.146,-0.214l0.144,-0.215l0.144,-0.217l0.142,-0.217l0.14,-0.217l0.139,-0.219l0.139,-0.22l0.137,-0.22l0.135,-0.222l0.134,-0.222l0.133,-0.223l0.131,-0.223l0.131,-0.225l0.128,-0.226l0.127,-0.225l0.127,-0.228l0.125,-0.228l0.123,-0.229l0.122,-0.229l0.121,-0.231l0.119,-0.23l0.118,-0.232l0.116,-0.233l0.115,-0.233l0.114,-0.234l0.113,-0.235l0.111,-0.236l0.109,-0.236l0.108,-0.237l0.107,-0.238l0.105,-0.238l0.104,-0.24l0.103,-0.24l0.1,-0.24l0.1,-0.242l0.098,-0.242l0.097,-0.242l0.095,-0.244l0.094,-0.244l0.092,-0.245l0.091,-0.246l0.09,-0.247l0.088,-0.246l0.086,-0.248l0.085,-0.248l0.083,-0.249l0.082,-0.25l0.081,-0.251l0.079,-0.25l0.077,-0.252l0.076,-0.252l0.075,-0.253l0.073,-0.254l0.071,-0.253l0.07,-0.255l0.068,-0.256l0.067,-0.256l0.066,-0.257l0.063,-0.258l0.062,-0.258l0.061,-0.258l0.059,-0.259l0.058,-0.261l0.056,-0.26l0.054,-0.261l0.053,-0.262l0.051,-0.262l0.049,-0.263l0.048,-0.264l0.047,-0.265l0.045,-0.264l0.043,-0.266l0.041,-0.266l0.04,-0.266l0.039,-0.267l0.036,-0.268l0.035,-0.268l0.034,-0.27l0.031,-0.27l0.031,-0.27l0.028,-0.271l0.027,-0.271l0.025,-0.272l0.023,-0.273l0.022,-0.273l0.02,-0.275l0.018,-0.274l0.017,-0.274l0.015,-0.276l0.013,-0.277l0.011,-0.277l0.01,-0.277l0.008,-0.278l0.006,-0.28l0.004,-0.279l0.003,-0.279l0.001,-0.281l-0.001,-0.281l-0.003,-0.279l-0.004,-0.279l-0.006,-0.28l-0.008,-0.278l-0.01,-0.277l-0.011,-0.277l-0.013,-0.277l-0.015,-0.276l-0.017,-0.274l-0.018,-0.274l-0.02,-0.275l-0.022,-0.273l-0.023,-0.273l-0.025,-0.272l-0.027,-0.271l-0.028,-0.271l-0.031,-0.27l-0.031,-0.27l-0.034,-0.27l-0.035,-0.268l-0.036,-0.268l-0.039,-0.267l-0.04,-0.266l-0.041,-0.266l-0.043,-0.266l-0.045,-0.264l-0.047,-0.265l-0.048,-0.264l-0.049,-0.263l-0.051,-0.262l-0.053,-0.262l-0.054,-0.261l-0.056,-0.26l-0.058,-0.261l-0.059,-0.259l-0.061,-0.258l-0.062,-0.258l-0.063,-0.258l-0.066,-0.257l-0.067,-0.256l-0.068,-0.256l-0.07,-0.255l-0.071,-0.253l-0.073,-0.254l-0.075,-0.253l-0.076,-0.252l-0.077,-0.252l-0.079,-0.25l-0.081,-0.251l-0.082,-0.25l-0.083,-0.249l-0.085,-0.248l-0.086,-0.248l-0.088,-0.246l-0.09,-0.247l-0.091,-0.246l-0.092,-0.244l-0.094,-0.245l-0.095,-0.244l-0.097,-0.242l-0.098,-0.242l-0.1,-0.242l-0.1,-0.24l-0.103,-0.24l-0.104,-0.24l-0.105,-0.238l-0.107,-0.238l-0.108,-0.237l-0.109,-0.236l-0.111,-0.236l-0.113,-0.235l-0.114,-0.234l-0.115,-0.233l-0.116,-0.233l-0.118,-0.232l-0.119,-0.23l-0.121,-0.231l-0.122,-0.23l-0.123,-0.228l-0.125,-0.228l-0.127,-0.228l-0.127,-0.225l-0.128,-0.226l-0.131,-0.225l-0.131,-0.224l-0.133,-0.222l-0.134,-0.222l-0.136,-0.222l-0.136,-0.22l-0.139,-0.22l-0.139,-0.219l-0.14,-0.217l-0.142,-0.217l-0.144,-0.217l-0.144,-0.215l-0.146,-0.214l-0.147,-0.213l-0.148,-0.213l-0.15,-0.212l-0.151,-0.21l-0.152,-0.21l-0.153,-0.209l-0.155,-0.208l-0.155,-0.207l-0.158,-0.206l-0.158,-0.206l-0.159,-0.203l-0.161,-0.203l-0.162,-0.203l-0.163,-0.201l-0.165,-0.201l-0.165,-0.199l-0.166,-0.198l-0.168,-0.197l-0.17,-0.197l-0.17,-0.195l-0.171,-0.194l-0.172,-0.193l-0.174,-0.192l-0.175,-0.191l-0.176,-0.191l-0.176,-0.188l-0.179,-0.188l-0.179,-0.187l-0.181,-0.186l-0.181,-0.185l-0.183,-0.184l-0.183,-0.182l-0.185,-0.181l-0.186,-0.181l-0.186,-0.179l-0.189,-0.178l-0.189,-0.178l-0.19,-0.175l-0.191,-0.175l-0.192,-0.174l-0.193,-0.172l-0.194,-0.171l-0.196,-0.171l-0.196,-0.168l-0.197,-0.169l-0.199,-0.166l-0.199,-0.166l-0.2,-0.164l-0.201,-0.163l-0.202,-0.162l-0.204,-0.161l-0.204,-0.159l-0.205,-0.158l-0.206,-0.157l-0.207,-0.156l-0.208,-0.155l-0.208,-0.153l-0.21,-0.152l-0.211,-0.151l-0.212,-0.15l-0.212,-0.148l-0.214,-0.147l-0.214,-0.146l-0.215,-0.144l-0.217,-0.144l-0.216,-0.142l-0.219,-0.14l-0.218,-0.14l-0.22,-0.138l-0.22,-0.136l-0.222,-0.136l-0.222,-0.134l-0.223,-0.133l-0.223,-0.131l-0.225,-0.131l-0.226,-0.128l-0.226,-0.128l-0.227,-0.126l-0.228,-0.125l-0.228,-0.123l-0.23,-0.122l-0.23,-0.121l-0.231,-0.119l-0.232,-0.118l-0.232,-0.116l-0.234,-0.115l-0.234,-0.114l-0.235,-0.113l-0.235,-0.11l-0.237,-0.11l-0.237,-0.108l-0.238,-0.107l-0.238,-0.105l-0.239,-0.104l-0.241,-0.103l-0.24,-0.101l-0.242,-0.099l-0.242,-0.098l-0.243,-0.097l-0.243,-0.095l-0.244,-0.094l-0.246,-0.092l-0.245,-0.091l-0.246,-0.09l-0.247,-0.088l-0.248,-0.086l-0.248,-0.085l-0.249,-0.084l-0.25,-0.081l-0.25,-0.081l-0.251,-0.079l-0.252,-0.077l-0.252,-0.076l-0.253,-0.075l-0.254,-0.073l-0.254,-0.071l-0.255,-0.07l-0.255,-0.068l-0.256,-0.067l-0.257,-0.066l-0.258,-0.063l-0.258,-0.062l-0.258,-0.061l-0.26,-0.059l-0.26,-0.058l-0.26,-0.056l-0.261,-0.054l-0.262,-0.053l-0.262,-0.051l-0.263,-0.049l-0.264,-0.048l-0.264,-0.047l-0.265,-0.045l-0.265,-0.043l-0.267,-0.041l-0.266,-0.04l-0.267,-0.039l-0.268,-0.036l-0.269,-0.035l-0.269,-0.034l-0.269,-0.031l-0.271,-0.03l-0.271,-0.029l-0.271,-0.027l-0.272,-0.025l-0.273,-0.023l-0.273,-0.022l-0.274,-0.02l-0.275,-0.018l-0.275,-0.017l-0.276,-0.015l-0.276,-0.013l-0.277,-0.011l-0.277,-0.01l-0.278,-0.008l-0.279,-0.006l-0.279,-0.004l-0.28,-0.003l-0.281,-0.001l-0.281,0.001Z" style="fill:#fff;"/><circle cx="335" cy="87" r="35" style="fill:#fff;stroke:#fff;stroke-width:1px;"/></svg>